<?xml version="1.0" encoding="UTF-8" standalone="no"?>
<!-- Created with Inkscape (http://www.inkscape.org/) -->

<svg
   xmlns:dc="http://purl.org/dc/elements/1.1/"
   xmlns:cc="http://creativecommons.org/ns#"
   xmlns:rdf="http://www.w3.org/1999/02/22-rdf-syntax-ns#"
   xmlns:svg="http://www.w3.org/2000/svg"
   xmlns="http://www.w3.org/2000/svg"
   xmlns:sodipodi="http://sodipodi.sourceforge.net/DTD/sodipodi-0.dtd"
   xmlns:inkscape="http://www.inkscape.org/namespaces/inkscape"
   width="512"
   height="512"
   viewBox="0 0 511.99999 512.00001"
   id="svg2"
   version="1.1"
   inkscape:version="0.91 r13725"
   sodipodi:docname="drawing.svg"
   inkscape:export-filename="drawing.png"
   inkscape:export-xdpi="90"
   inkscape:export-ydpi="90">
  <defs
     id="defs4" />
  <sodipodi:namedview
     id="base"
     pagecolor="#ffffff"
     bordercolor="#666666"
     borderopacity="1.0"
     inkscape:pageopacity="0.0"
     inkscape:pageshadow="2"
     inkscape:zoom="0.86772068"
     inkscape:cx="300.12563"
     inkscape:cy="328.47129"
     inkscape:document-units="px"
     inkscape:current-layer="layer3"
     showgrid="true"
     units="px"
     inkscape:snap-page="false"
     inkscape:window-width="1440"
     inkscape:window-height="851"
     inkscape:window-x="0"
     inkscape:window-y="1"
     inkscape:window-maximized="1">
    <inkscape:grid
       type="xygrid"
       id="grid4218" />
  </sodipodi:namedview>
  <metadata
     id="metadata7">
    <rdf:RDF>
      <cc:Work
         rdf:about="">
        <dc:format>image/svg+xml</dc:format>
        <dc:type
           rdf:resource="http://purl.org/dc/dcmitype/StillImage" />
        <dc:title />
      </cc:Work>
    </rdf:RDF>
  </metadata>
  <g
     inkscape:label="Layer 1"
     inkscape:groupmode="layer"
     id="layer1"
     transform="translate(0,-540.36216)"
     style="display:inline"
     sodipodi:insensitive="true">
    <path
       style="fill:#face8d;fill-opacity:1;fill-rule:evenodd;stroke:#202020;stroke-width:5;stroke-linecap:butt;stroke-linejoin:miter;stroke-miterlimit:4;stroke-dasharray:none;stroke-opacity:1"
       d="m 20.000437,580.36216 c 0,0 1.272864,-11.2732 4.999563,-15 3.726731,-3.72683 15,-5 15,-5 l 432,0 c 0,0 11.27322,1.27322 15,5 3.72678,3.72678 5,15 5,15 l 0,432.00004 c 0,0 -1.27323,11.2732 -5,15 -3.72678,3.7267 -15,5 -15,5 l -432,0 c 0,0 -11.27322,-1.2733 -15,-5 -3.72678,-3.7268 -5,-15 -5,-15 z"
       id="path4184"
       inkscape:connector-curvature="0"
       sodipodi:nodetypes="caccaccaccacc" />
  </g>
  <g
     inkscape:groupmode="layer"
     id="layer3"
     inkscape:label="Layer 3"
     style="display:inline"
     sodipodi:insensitive="true">
    <g
       id="g4234"
       transform="matrix(1.1058687,0,0,1.1058687,-26.16346,-36.336121)">
      <ellipse
         ry="67.5"
         rx="70"
         cy="284.49979"
         cx="254"
         id="path4224"
         style="fill:#6dcbef;fill-opacity:1;stroke:none;stroke-width:10;stroke-linecap:round;stroke-linejoin:round;stroke-miterlimit:4;stroke-dasharray:none;stroke-opacity:1" />
      <ellipse
         ry="56"
         rx="57"
         cy="284.99979"
         cx="255"
         id="path4222"
         style="fill:#54a9bf;fill-opacity:1;stroke:none;stroke-width:10;stroke-linecap:round;stroke-linejoin:round;stroke-miterlimit:4;stroke-dasharray:none;stroke-opacity:1" />
      <circle
         r="39.5"
         cy="281.49979"
         cx="251.5"
         id="path4216"
         style="fill:#000000;fill-opacity:1;stroke:none;stroke-width:10;stroke-linecap:round;stroke-linejoin:round;stroke-miterlimit:4;stroke-dasharray:none;stroke-opacity:1" />
      <circle
         r="12.5"
         cy="278.49979"
         cx="212.5"
         id="path4220"
         style="fill:#ffffff;fill-opacity:1;stroke:none;stroke-width:10;stroke-linecap:round;stroke-linejoin:round;stroke-miterlimit:4;stroke-dasharray:none;stroke-opacity:1" />
      <path
         sodipodi:nodetypes="sssssssscssssssss"
         inkscape:connector-curvature="0"
         id="path4226"
         d="m 75,196.99979 c -2.35929,-4.40837 -1.913417,-10.3806 0,-15 2.705981,-6.53281 9.05197,-11.17627 15,-15 14,-9 26.85975,-17.43879 40.7,-24.9 24.3,-13.1 48.56221,-22.83349 74.7,-29.3 21.08297,-5.21596 42.67503,-7.10233 64.4,-7.60001 30.13988,-0.69045 60.55515,4.89087 90.6,4.6 20.05523,-0.19415 39.57711,-0.93562 59.6,-2.3 5.02873,-0.34266 15.1,-1.3 15.1,-1.3 0,0 -30.88804,11.61534 -50.1,15.00001 -22.97944,4.0484 -47,0.8 -70,0.8 -19.91231,0 -40.02839,-1.50937 -59.7,2.1 -16.62339,3.05008 -32.01203,8.37237 -47.7,15.9 -19.59817,9.40388 -38.28539,21.84697 -56.3,34 -11.88546,8.01819 -23.72051,16.12162 -36.3,23 -7.87492,4.30595 -16.072985,10.9295 -25,10 -5.97694,-0.62233 -12.164487,-4.7018 -15,-10 z"
         style="fill:#000000;fill-opacity:1;fill-rule:evenodd;stroke:none;stroke-width:1px;stroke-linecap:round;stroke-linejoin:round;stroke-opacity:1" />
      <path
         sodipodi:nodetypes="cssscssssc"
         inkscape:connector-curvature="0"
         id="path4228"
         d="m 128.5,250.09979 c 0,0 24.67022,-25.76111 39.1,-35.9 19.27167,-13.54098 40.84209,-23.35915 63.1,-30.6 20.84623,-6.78161 43.73271,-9.42396 65.5,-8.7 20.60414,0.68528 58.2,11.5 58.2,11.5 0,0 -35.9922,-4.60437 -54.4,-4.4 -18.34895,0.20372 -36.74902,2.1194 -54.7,6.2 -17.51513,3.98152 -31.18927,8.38784 -50.8,17.6 -8.8259,4.14597 -27.23993,14.46158 -35.4,19.8 -10.93446,7.15346 -30.6,24.5 -30.6,24.5 z"
         style="fill:#000000;fill-opacity:1;fill-rule:evenodd;stroke:none;stroke-width:1px;stroke-linecap:round;stroke-linejoin:round;stroke-opacity:1" />
      <path
         sodipodi:nodetypes="csssssssscsssssssssc"
         inkscape:connector-curvature="0"
         id="path4230"
         d="m 132.4,298.19979 c 0,0 6.76902,-14.90418 11.4,-21.6 7.49522,-10.83715 18.01276,-20.87266 28,-30.1 9.2,-8.5 19.93732,-15.77675 31.1,-21.6 16.84817,-8.78921 34.15851,-14.09044 52.4,-16.2 14.7,-1.7 30.30934,-0.97415 45.2,-0.2 11.76922,0.61187 22.95574,2.91592 34.5,3.5 11.65176,0.58952 23.33333,0.5 35,0.5 8,0 18,-1.5 25.9,-3.4 12.34105,-2.9681 38,-14.6 38,-14.6 0,0 -12.33895,11.05022 -19.1,15.8 -6.27293,4.40686 -7.4503,6.40469 -19.8,11.7 -12.60024,5.40274 -25.32033,9.66911 -39.4,11.8 -14.69133,2.22346 -30.25529,1.24302 -45.1,0.6 -16.52442,-0.71578 -33.18075,-1.63212 -49.6,-1.4 -13.41242,0.18961 -27.16749,2.11697 -40,4.4 -11.84366,2.1071 -23.45448,6.81913 -34,12.1 -6.43265,3.22127 -13.11738,8.00985 -18.2,11.6 -6.5593,4.63322 -15.32953,13.68189 -18.1,15.9 -7.27044,5.82091 -18.2,21.2 -18.2,21.2 z"
         style="fill:#000000;fill-opacity:1;fill-rule:evenodd;stroke:none;stroke-width:1px;stroke-linecap:round;stroke-linejoin:round;stroke-opacity:1" />
      <path
         sodipodi:nodetypes="cssssssscsssssssc"
         inkscape:connector-curvature="0"
         id="path4232"
         d="m 167.8,345.29979 c 0,0 17.98937,5.1649 27.2,6.7 12,2 23.81534,1.39663 35.6,1.5 13.43658,0.11786 27.27817,-0.41296 40.1,-3.3 12.38293,-2.78821 24.19164,-6.85492 35.4,-11.8 10.22902,-4.513 20.42993,-8.78748 29.6,-15 8.8352,-5.98566 9.11045,-5.89012 13.4,-9.2 4.88336,-3.76807 9.5291,-7.8507 14,-12.1 6.25449,-5.94448 17.9,-18.7 17.9,-18.7 0,0 -12.16212,16.81269 -19.1,24.5 -3.0327,3.3603 -6.36088,6.45698 -9.8,9.4 -7.35488,6.29393 -13.82675,12.31836 -23.1,17.6 -13.8688,7.89906 -27.8953,14.93985 -43.8,19 -12.67057,3.23454 -26.17539,6.24037 -39.3,6.3 -11.77575,0.0535 -23.63813,-0.86541 -35.3,-2.5 -4.97848,-0.69781 -11.4,-2.2 -14.8,-2.9 -9.64565,-1.98587 -28,-9.5 -28,-9.5 z"
         style="fill:#000000;fill-opacity:1;fill-rule:evenodd;stroke:none;stroke-width:1px;stroke-linecap:round;stroke-linejoin:round;stroke-opacity:1" />
    </g>
  </g>
</svg>
