<?xml version="1.0" encoding="UTF-8" standalone="no"?>
<svg
   xmlns:dc="http://purl.org/dc/elements/1.1/"
   xmlns:cc="http://creativecommons.org/ns#"
   xmlns:rdf="http://www.w3.org/1999/02/22-rdf-syntax-ns#"
   xmlns:svg="http://www.w3.org/2000/svg"
   xmlns="http://www.w3.org/2000/svg"
   xmlns:sodipodi="http://sodipodi.sourceforge.net/DTD/sodipodi-0.dtd"
   xmlns:inkscape="http://www.inkscape.org/namespaces/inkscape"
   inkscape:export-ydpi="96"
   inkscape:export-xdpi="96"
   inkscape:export-filename="drawing.png"
   sodipodi:docname="drawing.svg"
   inkscape:version="1.0.1 (c497b03c, 2020-09-10)"
   version="1.1"
   id="svg2"
   viewBox="0 0 135.46667 135.46667"
   height="512"
   width="512">
  <defs
     id="defs4" />
  <sodipodi:namedview
     inkscape:document-rotation="0"
     inkscape:guide-bbox="true"
     showguides="true"
     units="px"
     inkscape:snap-global="true"
     inkscape:snap-bbox="false"
     inkscape:window-maximized="1"
     inkscape:window-y="25"
     inkscape:window-x="0"
     inkscape:window-height="789"
     inkscape:window-width="1440"
     showgrid="true"
     inkscape:current-layer="layer2"
     inkscape:document-units="px"
     inkscape:cy="256.12128"
     inkscape:cx="344.53327"
     inkscape:zoom="1"
     inkscape:pageshadow="2"
     inkscape:pageopacity="0.0"
     borderopacity="1.0"
     bordercolor="#666666"
     pagecolor="#ffffff"
     id="base">
    <inkscape:grid
       empspacing="8"
       id="grid5606"
       type="xygrid" />
    <sodipodi:guide
       inkscape:locked="false"
       id="guide5626"
       orientation="1,0"
       position="67.733335,135.46667" />
    <sodipodi:guide
       inkscape:locked="false"
       id="guide5628"
       orientation="0,1"
       position="0,67.733335" />
  </sodipodi:namedview>
  <metadata
     id="metadata7">
    <rdf:RDF>
      <cc:Work
         rdf:about="">
        <dc:format>image/svg+xml</dc:format>
        <dc:type
           rdf:resource="http://purl.org/dc/dcmitype/StillImage" />
        <dc:title />
      </cc:Work>
    </rdf:RDF>
  </metadata>
  <g
     style="display:inline"
     inkscape:label="background"
     id="layer15"
     inkscape:groupmode="layer"
     sodipodi:insensitive="true">
    <rect
       ry="25.4"
       y="6.3500004"
       x="6.3500004"
       height="122.76667"
       width="122.76667"
       id="rect5624"
       style="opacity:1;fill:#32d74b;fill-opacity:1;fill-rule:nonzero;stroke:#000000;stroke-width:4.23333;stroke-linecap:round;stroke-linejoin:round;stroke-miterlimit:4;stroke-dasharray:none;stroke-dashoffset:0;stroke-opacity:1" />
  </g>
  <g
     sodipodi:insensitive="true"
     transform="translate(0,-161.53332)"
     style="display:inline"
     inkscape:label="eye"
     id="layer2"
     inkscape:groupmode="layer">
    <g
       transform="matrix(0.56589238,0,0,0.56589238,0.24552934,165.98718)"
       id="g5610">
      <path
         style="fill:#000000;fill-opacity:1;fill-rule:evenodd;stroke:none;stroke-width:1px;stroke-linecap:butt;stroke-linejoin:miter;stroke-opacity:1"
         d="m 395.76953,254.27734 -6.26758,1.20899 c 0,0 -3.28555,15.54734 -3.02929,16.30859 0.26154,0.7771 10.73319,7.6114 10.27734,8.25391 -0.38585,0.54382 -17.8125,-1.89844 -17.8125,-1.89844 l -21.4043,1.35352 -12.75976,-12.32032 -26.22656,0.74414 -34.58008,2.45508 -14.65625,1.73047 c 0,0 -10.63459,1.454 -11.59571,2.50977 -0.89807,0.9865 0.24805,12.44726 0.24805,12.44726 l -7.44531,8.63867 c 0,0 -30.16641,4.87367 -44.33399,8.41211 -5.48015,1.36871 -14.89062,8.0918 -14.89062,8.0918 l -29.68164,4.65039 -20.18945,1.07031 -2.74805,15.3711 11.74023,3.71679 2.11914,13.74219 12.1211,8.08008 -32.47852,30.65234 -21.82617,23.31055 -14.177735,30.54492 c 0,0 -8.905254,10.06447 -12.806641,15.51953 -3.560303,4.97817 -9.625,15.63477 -9.625,15.63477 l -11.615234,4.54687 4.544922,13.63672 c 0,0 9.427509,13.31472 16.162109,17.17188 7.422089,4.25091 29.294919,5.05078 29.294919,5.05078 l 39.90039,-63.13281 17.36719,-21.33203 28.75586,-39.10938 14.75195,-8.26562 c 0,0 1.89019,-15.37305 7.75,-18.74805 10.05994,-5.79408 12.11217,-9.19745 31.45313,-16.9336 0.21506,8.29803 0.7321,17.74146 1.96094,23.67579 2.58124,12.46533 10.97728,31.64576 12.51953,33.51757 1.54225,1.87182 6.23108,7.08866 9.43359,11.0879 3.20252,3.99921 8.37208,11.78191 8.69141,13.75781 0.31931,1.9759 -3.25373,7.03378 -2.74414,7.72461 0.50958,0.69082 8.08861,-0.42305 11.27929,1.08789 3.19069,1.51094 4.8838,4.31076 6.94532,6.98633 2.06151,2.67556 1.75357,2.56503 5.89453,8.35742 4.14095,5.79235 14.05089,20.12758 20.45312,25.10937 6.40223,4.9818 35.76633,14.78251 37.93555,17.5918 2.16922,2.80928 -2.00602,15.80526 -1.41992,16.17187 0.5861,0.36658 17.26364,-4.8323 20.30469,-4.94531 3.04102,-0.11289 33.57421,5.28906 33.57421,5.28906 0,0 5.08689,-2.60047 12.41993,-4.45898 7.33303,-1.85851 22.73857,-2.62381 31.82421,-4.86719 9.08565,-2.24337 12.67146,-2.55956 22.64454,-7.81836 9.97307,-5.25876 24.33798,-17.04174 34.64453,-26.34765 10.30654,-9.30592 26.47518,-27.15098 27.24609,-28.5293 0.77091,-1.37832 0.94846,-15.01201 1.99414,-17.21094 1.04568,-2.19893 16.30376,-18.02473 17.05078,-19.41015 0.74703,-1.38543 0.49178,-11.05569 2.06055,-17.23243 1.56877,-6.17673 4.51937,-13.50445 7.71484,-19.40429 3.19548,-5.89984 11.11392,-14.00463 11.16797,-15.83203 0.0365,-1.23842 -4.77288,-11.18122 -7.95312,-17.62891 0.45456,0.12424 1.03505,0.27167 1.47265,0.39258 23.02485,6.36146 30.92383,11.50976 30.92383,11.50976 0,0 23.2832,11.93977 41.30274,22.375 18.01954,10.43525 65.35162,50.81762 61.7207,62.22461 -3.63092,11.407 -216.40599,84.63015 -222.71289,85.93946 -6.30694,1.30926 -12.41896,0.81018 -14.67383,-4.11719 -1.37053,-2.99494 -32.95773,7.77427 -69.7207,7.65234 -36.76298,-0.12208 -136.46002,-22.18647 -145.88867,-23.89648 -9.42867,-1.71001 -29.15842,-3.16574 -37.17188,-5.625 -8.01346,-2.45923 -8.01915,-1.49599 -11.87891,-6.41406 -3.85976,-4.91808 -2.76981,-21.52089 -6.06054,-23.23438 -3.29073,-1.71349 -30.97748,7.89508 -33.67188,10.3418 -1.2218,1.10948 -6.80589,8.01953 -8.55469,10.69922 -1.74879,2.67972 -8.52713,14.70065 -8.17968,16.8789 0.34745,2.17822 13.41399,14.55771 20.16015,19.72852 6.74616,5.17077 16.19816,11.03131 19.21289,11.55859 2.84288,0.4972 27.6966,-3.38513 39.1836,-1.98633 11.487,1.39884 26.85726,9.60665 28.91015,8.72266 2.0529,-0.88403 4.68629,-4.12092 4.375,-4.67969 -0.31128,-0.55873 -32.65985,-11.32654 -32.88086,-11.86523 -0.22098,-0.5387 0.26704,-4.05159 0.4961,-4.34375 0.22904,-0.29216 4.00041,-0.84044 6.79101,-0.94336 2.7906,-0.1028 9.22406,0.36306 14.45704,1.03515 5.23295,0.67197 3.07357,-0.37821 16.87109,3.13868 13.79752,3.517 34.76959,13.39472 57.83594,20.45703 23.06635,7.06231 56.02331,15.98438 80.71289,20.97461 24.68957,4.99022 47.02196,8.57869 67.0332,9.76172 20.0112,1.18303 48.3056,1.56322 48.80469,0.81836 0.21997,-0.32845 -2.70579,-6.76743 -5.53711,-10.20313 -2.83136,-3.43574 -5.55382,-3.1495 -6.76172,-5.83984 -1.20786,-2.69035 -3.42262,-6.09874 -1.91406,-9.96289 1.50856,-3.86415 7.23269,-6.88557 11.85547,-8.76172 4.62274,-1.87612 11.48388,-7.8393 14.83984,-8.16797 3.35599,-0.32882 2.42022,-1.19647 3.13867,1 0.34469,1.05332 -0.16626,5.64095 -3.48242,9.42187 -3.59906,4.1034 -8.96519,8.5278 -7.00781,11.10547 1.95738,2.57768 15.22404,-10.16343 21.63476,-12.85351 6.94719,-2.91515 4.70131,4.11062 7.70313,4.79101 3.00181,0.68039 25.20942,-10.76791 29.17187,-12.51367 2.11665,-0.93256 7.82395,-0.0299 13.0586,-1.70312 5.23468,-1.67316 7.86206,-6.87882 13.20117,-6.07813 5.33911,0.80069 -13.10021,19.39145 -6.25586,17.24219 6.84431,-2.14931 14.88774,-2.75065 20.98828,-2.66406 6.10054,0.0865 64.55265,-10.68061 69.49219,-13.38868 4.93954,-2.70807 32.55249,-44.51551 37.75195,-46.61523 4.87189,-1.96743 55.31075,-5.78626 59.84766,-8.14453 4.53687,-2.35828 42.0703,-37.78297 41.30468,-44.74414 -0.76561,-6.96117 -271.88746,-134.41586 -279.01171,-137.98242 -7.12426,-3.56657 -63.07629,-11.417 -89.53907,-15.79493 -26.46277,-4.37792 -69.1914,-10.6914 -69.1914,-10.6914 z M 173.5918,343.80273 c 2.46345,-0.0383 4.89838,0.15663 5.74804,0.67774 1.69934,1.04222 0.92155,4.81594 -0.70703,6.14453 -1.62858,1.32859 -9.75753,-1.28974 -11.13672,-2.51953 -1.37919,-1.2298 -1.75178,-2.75581 0.17579,-3.58008 0.96376,-0.41213 3.45646,-0.68436 5.91992,-0.72266 z m 157.35547,19.02344 c 0.86578,0.0284 1.46218,0.1832 1.69921,0.48828 1.89628,2.44067 -7.9791,9.93614 -11.64648,17.67969 -3.66738,7.74356 -4.05325,24.75445 -7.14648,26.78711 -3.09323,2.03267 -11.95076,-29.82587 -9.96875,-34.79297 1.73425,-4.34621 21.00203,-10.36114 27.0625,-10.16211 z m 182.19531,36.23633 c 6.42281,-0.0836 18.08621,0.63297 18.94922,1.63477 1.26633,1.47001 -4.23429,14.57012 -6.21094,14.91406 -1.97666,0.34401 -18.81876,-11.06011 -18.93555,-12 -0.11686,-0.93989 0.58483,-3.28137 2.11524,-4.17969 0.3826,-0.22457 1.94109,-0.34129 4.08203,-0.36914 z m -15.84961,18.04102 c 0.12995,-0.01 0.27106,-0.008 0.41992,0.008 0.39695,0.0415 0.85636,0.17442 1.34961,0.4082 1.97302,0.93511 18.14336,10.87944 18.4375,12.1875 0.29414,1.30806 -1.89177,4.63243 -3.25,4.9375 -1.35823,0.30507 -16.79037,-13.85502 -17.6875,-15.625 -0.58874,-1.16154 -0.17917,-1.84627 0.73047,-1.91601 z m -8.91016,12.10546 c 0.39269,-0.0157 0.77059,0.0609 1.05469,0.24805 1.13641,0.74851 16.25852,15.25478 16.0625,16.1875 -0.19602,0.93272 -3.90037,4.11518 -4.875,4.125 -0.97463,0.01 -13.23671,-16.90706 -14.09375,-18.46875 -0.64278,-1.17127 0.6735,-2.04452 1.85156,-2.0918 z m -11.89062,7.21875 c 0.47755,-0.005 0.90895,0.10592 1.18554,0.35938 1.10637,1.01383 15.95537,16.52677 15.80665,17.85742 -0.14873,1.33065 -6.91551,5.75348 -8.12305,5.51367 -1.20755,-0.2398 -10.80538,-19.35628 -11.58008,-21.24023 -0.58102,-1.41297 1.27827,-2.4753 2.71094,-2.49024 z m -16.54883,1.53711 c 1.47322,0.0378 3.07988,0.79188 3.74414,2.24219 1.32853,2.90062 9.97541,23.84439 9.25,25.25 -0.72541,1.40561 -12.20223,3.94365 -13.8125,3.3125 -1.61027,-0.63115 -2.38574,-25.92195 -2.125,-28.75 0.13037,-1.41402 1.47014,-2.09249 2.94336,-2.05469 z m -64.53906,0.67774 c 0.93695,0.0763 1.59262,0.72418 1.84375,1.87695 0.76533,3.51321 -9.63258,33.12775 -12.15821,33.11914 -2.52564,-0.009 -6.74026,-5.61741 -7.66992,-8.84179 -0.92967,-3.2244 4.92421,-11.08309 9.73438,-18.84961 3.00635,-4.85408 5.89875,-7.13393 7.83203,-7.30274 0.14499,-0.0127 0.28412,-0.0128 0.41797,-0.002 z m 46.00195,1.77344 c 1.27612,0.0489 2.39494,0.63458 2.75781,1.91406 0.96767,3.41194 5.90455,26.66506 4.88672,27.99414 -1.01784,1.32908 -10.29957,2.61592 -12.20312,1.55859 -1.90355,-1.05733 -0.72098,-24.49068 -0.35743,-27.96679 0.22722,-2.17257 2.78915,-3.58147 4.91602,-3.5 z m -17.69531,1.50976 c 0.94993,-0.0693 1.85672,0.67803 2.28906,2.40625 0.98821,3.95023 2.92969,27.08052 1.75,28.3125 -1.17969,1.23198 -8.95047,1.16296 -10.4375,-0.125 -1.48703,-1.28796 2.64288,-22.28659 3.4375,-26.625 0.44697,-2.44035 1.7396,-3.87959 2.96094,-3.96875 z m -13.45508,0.29883 c 0.90699,0.0801 1.51749,1.0372 1.49414,3.04492 -0.0534,4.58908 -3.0194,28.64667 -4.6875,29.25 -1.6681,0.60333 -9.22357,-0.261 -10.5625,-2.0625 -1.33893,-1.8015 6.95215,-22.24919 9.5,-26.5625 1.43317,-2.42624 3.08973,-3.7729 4.25586,-3.66992 z m -60.16211,0.66992 c 1.7258,-0.0779 4.61061,1.16757 1.46875,7.59375 -3.14186,6.42618 -5.78575,10.56436 -7.19922,10.52539 -1.41348,-0.039 -7.11886,-5.98016 -7.13086,-7.16797 -0.012,-1.18782 11.13553,-10.87322 12.86133,-10.95117 z m 14.75,3.25 c 2.11907,-0.26175 4.08342,4.86396 5.03125,9.28125 0.94783,4.41729 -1.13918,18.25473 -2.125,18.71875 -0.98582,0.46402 -8.86205,-7.68044 -9.4375,-11.65625 -0.57545,-3.97581 4.41218,-16.082 6.53125,-16.34375 z m 19.09766,34.4707 c 1.18684,-0.015 2.36665,0.32548 3.125,1.04688 1.51687,1.4428 1.39245,3.48647 -0.15625,5.10547 -1.5487,1.61922 -5.01957,1.5979 -6.51758,-0.084 -1.49802,-1.68189 -1.18336,-3.57404 0.38476,-4.97851 v -0.002 c 0.78407,-0.70219 1.97722,-1.07288 3.16407,-1.08789 z m 18.54882,0.19532 c 2.00489,0.0495 3.90819,0.51256 5.02344,1.51172 2.54918,2.28378 2.59715,5.35642 0.50586,7.05664 -2.09129,1.70025 -9.14327,1.68455 -11.73047,-0.11719 -2.58724,-1.8017 -3.15775,-4.99443 -0.57422,-6.84961 v -0.002 c 1.45324,-1.04348 4.19768,-1.66328 6.77539,-1.59961 z m 22.49219,1.02148 c 1.46033,0.04 2.69323,0.27869 3.21485,0.75586 1.3909,1.27249 1.35662,5.2899 -0.17579,6.32031 -1.53237,1.03053 -8.55712,2.01287 -10.82812,-0.13281 -2.27101,-2.14567 -1.482,-4.32609 0.83984,-5.67969 1.45115,-0.846 4.51534,-1.33029 6.94922,-1.26367 z"
         transform="scale(0.26458333)"
         id="path4255"
         inkscape:connector-curvature="0" />
      <path
         style="fill:#ffffff;fill-opacity:1;fill-rule:evenodd;stroke:none;stroke-width:0.264583px;stroke-linecap:butt;stroke-linejoin:miter;stroke-opacity:1"
         d="m 92.141145,94.990622 c 0.231533,-0.402598 11.262625,-3.651743 12.003115,-3.48601 0.74049,0.165732 2.25244,2.135398 2.69364,2.409336 0.44119,0.273939 1.41652,0.155392 1.55104,0.831809 0.13452,0.676416 0.6921,2.82364 0.41728,3.32162 -0.27481,0.49798 -11.142684,4.862273 -11.700469,4.852713 -0.557786,-0.01 -1.871151,-3.15682 -2.160116,-3.267504 -0.288965,-0.110683 -1.406975,0.09494 -1.65697,0.34609 -0.249995,0.251154 -0.274336,1.640434 -0.490074,1.764154 -0.215738,0.12373 -0.711962,0.19058 -0.831465,-0.11923 -0.119503,-0.3098 0.210626,-3.25048 0.224115,-3.790022 0.01349,-0.539542 -0.281629,-2.460358 -0.0501,-2.862956 z"
         id="path5604"
         inkscape:connector-curvature="0"
         sodipodi:nodetypes="zzzzzzzzzzzz" />
    </g>
  </g>
</svg>
