<?xml version="1.0" encoding="UTF-8" standalone="no"?>
<svg xmlns="http://www.w3.org/2000/svg" height="512" width="512" version="1.1" viewBox="0 0 135.46667 135.46667">
	<g>
		<path stroke-linejoin="round" d="m23.283 6.35h88.9c9.3811 0 16.933 7.5523 16.933 16.933v88.9c0 9.3811-7.5523 16.933-16.933 16.933h-88.897c-9.3811 0-16.933-7.5523-16.933-16.933v-88.897c0-9.3811 7.5523-16.933 16.933-16.933z" stroke="#000" stroke-linecap="round" stroke-width="4.2333" fill="#4caf50"/>
	</g>
	<g transform="translate(0 -161.53)">
		<g fill-rule="evenodd" transform="matrix(.56589 0 0 .56589 .24553 165.99)">
			<path d="m395.77 254.28-6.2676 1.209s-3.2856 15.547-3.0293 16.309c0.26154 0.7771 10.733 7.6114 10.277 8.2539-0.38585 0.54382-17.812-1.8984-17.812-1.8984l-21.404 1.3535-12.76-12.32-26.227 0.74414-34.58 2.4551-14.656 1.7305s-10.635 1.454-11.596 2.5098c-0.89807 0.9865 0.24805 12.447 0.24805 12.447l-7.4453 8.6387s-30.166 4.8737-44.334 8.4121c-5.4802 1.3687-14.891 8.0918-14.891 8.0918l-29.682 4.6504-20.189 1.0703-2.748 15.371 11.74 3.7168 2.1191 13.742 12.121 8.0801-32.479 30.652-21.826 23.311-14.178 30.545s-8.9053 10.064-12.807 15.52c-3.5603 4.9782-9.625 15.635-9.625 15.635l-11.615 4.5469 4.5449 13.637s9.4275 13.315 16.162 17.172c7.4221 4.2509 29.295 5.0508 29.295 5.0508l39.9-63.133 17.367-21.332 28.756-39.109 14.752-8.2656s1.8902-15.373 7.75-18.748c10.06-5.7941 12.112-9.1974 31.453-16.934 0.21506 8.298 0.7321 17.741 1.9609 23.676 2.5812 12.465 10.977 31.646 12.52 33.518 1.5422 1.8718 6.2311 7.0887 9.4336 11.088 3.2025 3.9992 8.3721 11.782 8.6914 13.758 0.31931 1.9759-3.2537 7.0338-2.7441 7.7246 0.50958 0.69082 8.0886-0.42305 11.279 1.0879 3.1907 1.5109 4.8838 4.3108 6.9453 6.9863 2.0615 2.6756 1.7536 2.565 5.8945 8.3574 4.141 5.7924 14.051 20.128 20.453 25.109 6.4022 4.9818 35.766 14.783 37.936 17.592 2.1692 2.8093-2.006 15.805-1.4199 16.172 0.5861 0.36658 17.264-4.8323 20.305-4.9453 3.041-0.11289 33.574 5.2891 33.574 5.2891s5.0869-2.6005 12.42-4.459c7.333-1.8585 22.739-2.6238 31.824-4.8672 9.0856-2.2434 12.671-2.5596 22.645-7.8184 9.9731-5.2588 24.338-17.042 34.645-26.348 10.307-9.3059 26.475-27.151 27.246-28.529 0.77091-1.3783 0.94846-15.012 1.9941-17.211 1.0457-2.1989 16.304-18.025 17.051-19.41 0.74703-1.3854 0.49178-11.056 2.0606-17.232 1.5688-6.1767 4.5194-13.504 7.7148-19.404 3.1955-5.8998 11.114-14.005 11.168-15.832 0.0365-1.2384-4.7729-11.181-7.9531-17.629 0.45456 0.12424 1.035 0.27167 1.4726 0.39258 23.025 6.3615 30.924 11.51 30.924 11.51s23.283 11.94 41.303 22.375 65.352 50.818 61.721 62.225c-3.6309 11.407-216.41 84.63-222.71 85.939-6.3069 1.3093-12.419 0.81018-14.674-4.1172-1.3705-2.9949-32.958 7.7743-69.721 7.6523-36.763-0.12208-136.46-22.186-145.89-23.896-9.4287-1.71-29.158-3.1657-37.172-5.625-8.0135-2.4592-8.0192-1.496-11.879-6.4141s-2.7698-21.521-6.0605-23.234c-3.2907-1.7135-30.977 7.8951-33.672 10.342-1.2218 1.1095-6.8059 8.0195-8.5547 10.699-1.7488 2.6797-8.5271 14.701-8.1797 16.879 0.34745 2.1782 13.414 14.558 20.16 19.729 6.7462 5.1708 16.198 11.031 19.213 11.559 2.8429 0.4972 27.697-3.3851 39.184-1.9863s26.857 9.6066 28.91 8.7227c2.0529-0.88403 4.6863-4.1209 4.375-4.6797-0.31128-0.55873-32.66-11.327-32.881-11.865-0.22098-0.5387 0.26704-4.0516 0.4961-4.3438 0.22904-0.29216 4.0004-0.84044 6.791-0.94336 2.7906-0.1028 9.2241 0.36306 14.457 1.0352 5.233 0.67197 3.0736-0.37821 16.871 3.1387 13.798 3.517 34.77 13.395 57.836 20.457 23.066 7.0623 56.023 15.984 80.713 20.975 24.69 4.9902 47.022 8.5787 67.033 9.7617s48.306 1.5632 48.805 0.81836c0.21997-0.32845-2.7058-6.7674-5.5371-10.203-2.8314-3.4357-5.5538-3.1495-6.7617-5.8398-1.2079-2.6904-3.4226-6.0987-1.9141-9.9629 1.5086-3.8642 7.2327-6.8856 11.855-8.7617 4.6227-1.8761 11.484-7.8393 14.84-8.168 3.356-0.32882 2.4202-1.1965 3.1387 1 0.34469 1.0533-0.16626 5.641-3.4824 9.4219-3.5991 4.1034-8.9652 8.5278-7.0078 11.105 1.9574 2.5777 15.224-10.163 21.635-12.854 6.9472-2.9152 4.7013 4.1106 7.7031 4.791 3.0018 0.68039 25.209-10.768 29.172-12.514 2.1166-0.93256 7.824-0.0299 13.059-1.7031 5.2347-1.6732 7.8621-6.8788 13.201-6.0781 5.3391 0.80069-13.1 19.391-6.2559 17.242 6.8443-2.1493 14.888-2.7506 20.988-2.6641 6.1005 0.0865 64.553-10.681 69.492-13.389 4.9395-2.7081 32.552-44.516 37.752-46.615 4.8719-1.9674 55.311-5.7863 59.848-8.1445 4.5369-2.3583 42.07-37.783 41.305-44.744-0.76561-6.9612-271.89-134.42-279.01-137.98-7.1243-3.5666-63.076-11.417-89.539-15.795-26.463-4.3779-69.191-10.691-69.191-10.691zm-222.18 89.52c2.4634-0.0383 4.8984 0.15663 5.748 0.67774 1.6993 1.0422 0.92155 4.8159-0.70703 6.1445s-9.7575-1.2897-11.137-2.5195c-1.3792-1.2298-1.7518-2.7558 0.17579-3.5801 0.96376-0.41213 3.4565-0.68436 5.9199-0.72266zm157.36 19.023c0.86578 0.0284 1.4622 0.1832 1.6992 0.48828 1.8963 2.4407-7.9791 9.9361-11.646 17.68-3.6674 7.7436-4.0532 24.754-7.1465 26.787-3.0932 2.0327-11.951-29.826-9.9688-34.793 1.7342-4.3462 21.002-10.361 27.062-10.162zm182.2 36.236c6.4228-0.0836 18.086 0.63297 18.949 1.6348 1.2663 1.47-4.2343 14.57-6.2109 14.914-1.9767 0.34401-18.819-11.06-18.936-12-0.11686-0.93989 0.58483-3.2814 2.1152-4.1797 0.3826-0.22457 1.9411-0.34129 4.082-0.36914zm-15.85 18.041c0.12995-0.01 0.27106-0.008 0.41992 0.008 0.39695 0.0415 0.85636 0.17442 1.3496 0.4082 1.973 0.93511 18.143 10.879 18.438 12.188 0.29414 1.3081-1.8918 4.6324-3.25 4.9375-1.3582 0.30507-16.79-13.855-17.688-15.625-0.58874-1.1615-0.17917-1.8463 0.73047-1.916zm-8.9102 12.105c0.39269-0.0157 0.77059 0.0609 1.0547 0.24805 1.1364 0.74851 16.259 15.255 16.062 16.188-0.19602 0.93272-3.9004 4.1152-4.875 4.125-0.97463 0.01-13.237-16.907-14.094-18.469-0.64278-1.1713 0.6735-2.0445 1.8516-2.0918zm-11.891 7.2188c0.47755-0.005 0.90895 0.10592 1.1855 0.35938 1.1064 1.0138 15.955 16.527 15.807 17.857-0.14873 1.3306-6.9155 5.7535-8.123 5.5137-1.2076-0.2398-10.805-19.356-11.58-21.24-0.58102-1.413 1.2783-2.4753 2.7109-2.4902zm-16.549 1.5371c1.4732 0.0378 3.0799 0.79188 3.7441 2.2422 1.3285 2.9006 9.9754 23.844 9.25 25.25-0.72541 1.4056-12.202 3.9436-13.812 3.3125-1.6103-0.63115-2.3857-25.922-2.125-28.75 0.13037-1.414 1.4701-2.0925 2.9434-2.0547zm-64.539 0.67774c0.93695 0.0763 1.5926 0.72418 1.8438 1.877 0.76533 3.5132-9.6326 33.128-12.158 33.119-2.5256-0.009-6.7403-5.6174-7.6699-8.8418-0.92967-3.2244 4.9242-11.083 9.7344-18.85 3.0064-4.8541 5.8988-7.1339 7.832-7.3027 0.14499-0.0127 0.28412-0.0128 0.41797-0.002zm46.002 1.7734c1.2761 0.0489 2.3949 0.63458 2.7578 1.9141 0.96767 3.4119 5.9046 26.665 4.8867 27.994-1.0178 1.3291-10.3 2.6159-12.203 1.5586-1.9036-1.0573-0.72098-24.491-0.35743-27.967 0.22722-2.1726 2.7892-3.5815 4.916-3.5zm-17.695 1.5098c0.94993-0.0693 1.8567 0.67803 2.2891 2.4062 0.98821 3.9502 2.9297 27.081 1.75 28.312-1.1797 1.232-8.9505 1.163-10.438-0.125-1.487-1.288 2.6429-22.287 3.4375-26.625 0.44697-2.4404 1.7396-3.8796 2.9609-3.9688zm-13.455 0.29883c0.90699 0.0801 1.5175 1.0372 1.4941 3.0449-0.0534 4.5891-3.0194 28.647-4.6875 29.25-1.6681 0.60333-9.2236-0.261-10.562-2.0625-1.3389-1.8015 6.9522-22.249 9.5-26.562 1.4332-2.4262 3.0897-3.7729 4.2559-3.6699zm-60.162 0.66992c1.7258-0.0779 4.6106 1.1676 1.4688 7.5938-3.1419 6.4262-5.7858 10.564-7.1992 10.525-1.4135-0.039-7.1189-5.9802-7.1309-7.168s11.136-10.873 12.861-10.951zm14.75 3.25c2.1191-0.26175 4.0834 4.864 5.0312 9.2812 0.94783 4.4173-1.1392 18.255-2.125 18.719-0.98582 0.46402-8.862-7.6804-9.4375-11.656-0.57545-3.9758 4.4122-16.082 6.5312-16.344zm19.098 34.471c1.1868-0.015 2.3666 0.32548 3.125 1.0469 1.5169 1.4428 1.3924 3.4865-0.15625 5.1055-1.5487 1.6192-5.0196 1.5979-6.5176-0.084s-1.1834-3.574 0.38476-4.9785v-0.002c0.78407-0.70219 1.9772-1.0729 3.1641-1.0879zm18.549 0.19532c2.0049 0.0495 3.9082 0.51256 5.0234 1.5117 2.5492 2.2838 2.5972 5.3564 0.50586 7.0566s-9.1433 1.6846-11.73-0.11719c-2.5872-1.8017-3.1578-4.9944-0.57422-6.8496v-0.002c1.4532-1.0435 4.1977-1.6633 6.7754-1.5996zm22.492 1.0215c1.4603 0.04 2.6932 0.27869 3.2148 0.75586 1.3909 1.2725 1.3566 5.2899-0.17579 6.3203-1.5324 1.0305-8.5571 2.0129-10.828-0.13281-2.271-2.1457-1.482-4.3261 0.83984-5.6797 1.4512-0.846 4.5153-1.3303 6.9492-1.2637z" transform="scale(.26458)"/>
			<path d="m92.141 94.991c0.23153-0.4026 11.263-3.6517 12.003-3.486 0.74049 0.16573 2.2524 2.1354 2.6936 2.4093 0.44119 0.27394 1.4165 0.15539 1.551 0.83181 0.13452 0.67642 0.6921 2.8236 0.41728 3.3216-0.27481 0.49798-11.143 4.8623-11.7 4.8527-0.55779-0.01-1.8712-3.1568-2.1601-3.2675-0.28896-0.11068-1.407 0.09494-1.657 0.34609s-0.27434 1.6404-0.49007 1.7642c-0.21574 0.12373-0.71196 0.19058-0.83146-0.11923-0.1195-0.3098 0.21063-3.2505 0.22412-3.79 0.01349-0.53954-0.28163-2.4604-0.0501-2.863z" fill="#fff"/>
		</g>
	</g>
</svg>
