<?xml version="1.0" encoding="UTF-8"?>
<svg version="1.1" viewBox="0 0 16 16" xmlns="http://www.w3.org/2000/svg"><g transform="translate(0 -1036.4)"><circle cx="8" cy="1044.4" r="6.5" fill="none" stroke="#000" stroke-linecap="square"/><path transform="scale(.99289 1.0072)" d="m6.7472 1037.9q0-0.5665 0.20395-0.9518 0.20395-0.3965 0.78181-0.8044 0.4079-0.2833 0.61185-0.4873 0.20395-0.2039 0.27193-0.3852 0.079314-0.1926 0.079314-0.4192 0-0.3513-0.27193-0.5439-0.2606-0.1926-0.72516-0.1926-0.47589 0-0.95177 0.1473-0.46455 0.1473-0.95177 0.3965l-0.60052-1.235q0.5552-0.3059 1.201-0.4985 0.64584-0.1927 1.4163-0.1927 1.1897 0 1.8356 0.5439 0.65717 0.5439 0.65717 1.4617 0 0.6911-0.32859 1.167-0.32859 0.4759-0.99709 0.9518-0.35125 0.2493-0.54387 0.4419-0.19262 0.1813-0.27193 0.3512-0.067984 0.17-0.067984 0.4079v0.2493h-1.3483zm-0.23794 2.2435q0-0.5212 0.28326-0.7365t0.7025-0.2153q0.38524 0 0.66851 0.2153 0.2946 0.2153 0.2946 0.7365 0 0.4985-0.2946 0.7251-0.28326 0.2153-0.66851 0.2153-0.41923 0-0.7025-0.2153-0.28326-0.2266-0.28326-0.7251z" stroke-width="1px" aria-label="?"/></g></svg>
