<?xml version="1.0" encoding="UTF-8"?>
<svg width="16" height="16" version="1.1" viewBox="0 0 12.8 12.8" xmlns="http://www.w3.org/2000/svg"><path d="m2.6294 2.8h8.9706v6.4848c-0.48173 0.50667-0.96504 1.0117-1.4495 1.5153h-8.9506v-6.5041c0.47453-0.50053 0.95311-0.99729 1.4294-1.4959z" fill="none" stroke="#000" stroke-width=".8"/><path d="m5.1381 4.1838c-0.40056-0.003775-0.82182 0.055911-1.1625 0.29209-0.29023 0.19725-0.46202 0.53299-0.56582 0.86944-0.13419 0.44734-0.16259 0.92089-0.15944 1.3871 0.00608 0.4313 0.041683 0.86871 0.17408 1.2797 0.080832 0.24302 0.19904 0.48203 0.38727 0.65286 0.24497 0.22391 0.56853 0.32536 0.886 0.36523 0.26501 0.030672 0.53474 0.034241 0.7984-0.01106 0.19499 0.33551 0.38839 0.67219 0.5827 1.0082 0.22831-0.10971 0.45573-0.22061 0.68381-0.3308-0.18148-0.30814-0.36657-0.61391-0.54805-0.92205 0.25218-0.1897 0.44334-0.46294 0.54376-0.7706 0.14996-0.4523 0.17046-0.93739 0.16978-1.4121-0.0054039-0.47141-0.052701-0.95036-0.21369-1.3939-0.09952-0.27015-0.2488-0.53132-0.47846-0.70049-0.31612-0.23854-0.71644-0.30863-1.0979-0.31358zm-0.084259 0.66174c0.16185-0.0016 0.32393 0.022134 0.4747 0.085234 0.17765 0.073614 0.3285 0.21778 0.40821 0.4004 0.12226 0.27676 0.16908 0.58231 0.19272 0.88408 0.025669 0.40157 0.022058 0.80693-0.030853 1.2061-0.037151 0.23759-0.090036 0.48793-0.24359 0.67527-0.15581 0.18804-0.39608 0.26871-0.62664 0.28759-0.24317 0.018639-0.49961 1.41e-5 -0.71914-0.12055-0.12812-0.07149-0.23688-0.18356-0.30038-0.32088-0.077004-0.16445-0.11934-0.344-0.14906-0.52379-0.089613-0.57003-0.11123-1.1599 0.011258-1.7266 0.050436-0.21376 0.12384-0.4332 0.2729-0.59435 0.12969-0.13803 0.31026-0.20928 0.49039-0.23594 0.072403-0.00988 0.14593-0.015861 0.21949-0.016589z"/><path d="m8.0829 4.4608c0.23864-2.36e-4 0.47728-2.36e-4 0.71592 0 6.759e-4 0.33079-2.25e-4 0.66134 4.499e-4 0.99213 0.30505 4.718e-4 0.6101 0 0.91516 2.359e-4 -0.0052 0.21471-0.010809 0.42941-0.016658 0.64412-0.30483 7.078e-4 -0.60943-2.36e-4 -0.91426 4.718e-4 6.749e-4 0.54219-0.0016 1.0844 0.0011 1.6266 0.0059 0.14841 0.0027 0.30507 0.065062 0.44215 0.045474 0.1057 0.16795 0.13283 0.26768 0.13637 0.18798-7.078e-4 0.37574-0.012269 0.56373-0.015808 0.011478 0.19725 0.022517 0.39473 0.033316 0.59198-0.37391 0.065828-0.76632 0.14463-1.1378 0.021471-0.15647-0.048604-0.30235-0.15737-0.36584-0.31946-0.11369-0.27581-0.12292-0.58277-0.12787-0.87888-4.503e-4 -0.53488 0-1.0695-2.252e-4 -1.6044-0.16637-4.718e-4 -0.33274 2.36e-4 -0.49911-4.718e-4 -4.504e-4 -0.21447-4.504e-4 -0.42918 0-0.64388 0.16637-7.078e-4 0.33252 2.36e-4 0.49889-4.718e-4 6.754e-4 -0.33079-2.251e-4 -0.66134 4.503e-4 -0.99213z"/></svg>
