<?xml version="1.0" encoding="UTF-8" standalone="no"?>
<svg
   xmlns:dc="http://purl.org/dc/elements/1.1/"
   xmlns:cc="http://creativecommons.org/ns#"
   xmlns:rdf="http://www.w3.org/1999/02/22-rdf-syntax-ns#"
   xmlns:svg="http://www.w3.org/2000/svg"
   xmlns="http://www.w3.org/2000/svg"
   shape-rendering="auto"
   version="1.1"
   id="svg4205"
   viewBox="0 0 16 16"
   height="16"
   width="16">
  <defs
     id="defs4207" />
  <metadata
     id="metadata4210">
    <rdf:RDF>
      <cc:Work
         rdf:about="">
        <dc:format>image/svg+xml</dc:format>
        <dc:type
           rdf:resource="http://purl.org/dc/dcmitype/StillImage" />
        <dc:title />
      </cc:Work>
    </rdf:RDF>
  </metadata>
  <g
     id="layer2">
    <path
       id="path890"
       d="m 1.5,7.5 v 1 L 3.5,9 4,10.5 3,12 l 1,1 1.5,-1 1.5,0.5 0.5,2 h 1 l 0.5,-2 1.5,-0.5 1.5,1 1,-1 -1,-1.5 0.5,-1.5 2,-0.5 v -1 L 12.5,7 12,5.5 13,4 12,3 10.5,4 9,3.5 8.5,1.5 h -1 L 7,3.5 5.5,4 4,3 3,4 4,5.5 3.5,7 Z"
       style="fill:none;fill-rule:evenodd;stroke:#000000;stroke-width:1px;stroke-linecap:round;stroke-linejoin:round;stroke-opacity:1" />
    <path
       id="path904"
       d="M 10,8 A 2,2 0 0 1 8,10 2,2 0 0 1 6,8 2,2 0 0 1 8,6 2,2 0 0 1 10,8 Z"
       style="opacity:1;fill:#000000;fill-opacity:1;stroke:#000000;stroke-width:1;stroke-linecap:round;stroke-linejoin:round;stroke-miterlimit:4;stroke-dasharray:none;stroke-dashoffset:0;stroke-opacity:1" />
  </g>
</svg>
