<?xml version="1.0" encoding="UTF-8"?>
<svg version="1.1" viewBox="0 0 16 16" xmlns="http://www.w3.org/2000/svg"><g transform="translate(0 -1036.4)" fill="none" stroke="#000"><path d="m1.5 1049.9v-3c0-1 1-2 2-2h4c1 0 2 1 2 2v3z" stroke-width="1px"/><path d="m7.5 1041.4c0 1.5-0.89543 2.5-2 2.5s-2-1-2-2.5c0-2 0.5-2.5 2-2.5s2 0.5 2 2.5z" stroke-linecap="square" stroke-linejoin="round"/><path d="m9.5 1043.9h3c1 0 2 1 2 2v2h-3.5" stroke-linecap="round" stroke-width="1px"/><path d="m12.5 1041.4c0 1-0.5 1.5-1.25 1.5s-1.25-0.5-1.25-1.5 0.5-1.5 1.25-1.5 1.25 0.5 1.25 1.5z" stroke-linecap="square" stroke-linejoin="round"/></g></svg>
