<?xml version="1.0" encoding="UTF-8" standalone="no"?>
<svg
   xmlns:dc="http://purl.org/dc/elements/1.1/"
   xmlns:cc="http://creativecommons.org/ns#"
   xmlns:rdf="http://www.w3.org/1999/02/22-rdf-syntax-ns#"
   xmlns:svg="http://www.w3.org/2000/svg"
   xmlns="http://www.w3.org/2000/svg"
   shape-rendering="auto"
   id="svg2"
   version="1.1"
   viewBox="0 0 12.8 12.8"
   height="16"
   width="16">
  <metadata
     id="metadata20">
    <rdf:RDF>
      <cc:Work
         rdf:about="">
        <dc:format>image/svg+xml</dc:format>
        <dc:type
           rdf:resource="http://purl.org/dc/dcmitype/StillImage" />
        <dc:title />
      </cc:Work>
    </rdf:RDF>
  </metadata>
  <defs
     id="defs18" />
  <path
     style="fill:none;stroke:#000000;stroke-width:0.80000001;stroke-miterlimit:4;stroke-dasharray:none;stroke-opacity:1"
     id="path6"
     d="m 2.6294429,2.7999596 8.9705971,0 0,6.4847522 C 11.118307,9.791381 10.634998,10.296398 10.150564,10.8 L 1.2,10.8 1.2,4.2958962 C 1.6745301,3.7953628 2.1531121,3.2986051 2.6294429,2.7999596 Z" />
  <path
     id="path8"
     d="M 5.1380637,4.1837645 C 4.7375062,4.1799895 4.3162409,4.2396752 3.9755756,4.475852 3.6853458,4.6730985 3.5135566,5.0088424 3.4097585,5.345294 3.2755638,5.7926379 3.2471657,6.2661858 3.2503179,6.732405 c 0.00608,0.4312998 0.041683,0.8687121 0.1740759,1.2797211 0.080832,0.2430191 0.1990403,0.4820346 0.3872731,0.6528557 0.2449729,0.2239078 0.5685261,0.3253551 0.8860001,0.3652291 0.265012,0.030672 0.5347383,0.034241 0.7983993,-0.01106 0.1949876,0.335508 0.388392,0.6721883 0.5827041,1.0081681 C 6.3070815,9.9176064 6.5344989,9.8067069 6.7625848,9.6965225 6.5811068,9.3883838 6.3960122,9.0826117 6.2145342,8.774473 6.4667121,8.5847765 6.6578719,8.3115351 6.7582928,8.0038682 6.9082486,7.5515696 6.928752,7.0664752 6.9280766,6.5917622 6.9226727,6.1203524 6.8753753,5.6413998 6.7143868,5.197831 6.6148666,4.9276787 6.4655863,4.6665144 6.2359243,4.4973446 5.9198012,4.2588084 5.5194828,4.1887193 5.1380637,4.1837645 Z m -0.084259,0.6617403 c 0.1618464,-0.0016 0.3239262,0.022134 0.474698,0.085234 0.1776502,0.073614 0.3284997,0.2177808 0.4082059,0.4003989 0.1222613,0.2767586 0.1690803,0.5823094 0.192722,0.8840777 0.025669,0.4015714 0.022058,0.8069251 -0.030853,1.206137 -0.037151,0.2375927 -0.090036,0.4879333 -0.2435939,0.6752703 -0.15581,0.1880449 -0.3960824,0.2687147 -0.626645,0.28759 C 4.9851669,8.4028515 4.7287319,8.3842268 4.5092021,8.263661 4.3810867,8.192171 4.272321,8.080099 4.2088262,7.9427814 4.1318218,7.7783307 4.089485,7.5987797 4.059764,7.4189928 3.9701508,6.8489597 3.9485355,6.2591149 4.071022,5.692385 4.1214575,5.4786226 4.1948663,5.259183 4.3439214,5.0980353 4.473613,4.9600099 4.6541834,4.8887558 4.8343105,4.8620945 c 0.072403,-0.00988 0.1459279,-0.015861 0.2194947,-0.016589 z"
     mask="none"
     style="fill:#000000" />
  <path
     style="fill:#000000"
     id="path10"
     d="m 8.0828777,4.4607591 c 0.2386386,-2.36e-4 0.4772772,-2.36e-4 0.7159157,0 6.759e-4,0.3307891 -2.25e-4,0.6613422 4.499e-4,0.9921313 0.3050529,4.718e-4 0.6101048,0 0.9151567,2.359e-4 -0.0052,0.2147061 -0.010809,0.4294124 -0.016658,0.6441186 -0.3048269,7.078e-4 -0.6094289,-2.36e-4 -0.9142558,4.718e-4 6.749e-4,0.5421921 -0.0016,1.0843841 0.0011,1.6265763 0.0059,0.1484067 0.0027,0.3050715 0.065062,0.4421531 0.045474,0.1057015 0.167947,0.1328347 0.2676806,0.1363738 0.1879845,-7.078e-4 0.375743,-0.012269 0.5637276,-0.015808 0.011478,0.1972465 0.022517,0.394729 0.033316,0.5919756 C 9.3404577,8.944815 8.9480547,9.0236193 8.5765894,8.9004581 8.4201235,8.8518543 8.2742388,8.7430856 8.2107519,8.5809942 8.0970609,8.3051794 8.0878306,7.9982203 8.0828777,7.7021145 c -4.503e-4,-0.5348779 0,-1.0695198 -2.252e-4,-1.6043978 -0.1663716,-4.718e-4 -0.3327432,2.36e-4 -0.4991147,-4.718e-4 -4.504e-4,-0.2144703 -4.504e-4,-0.4291765 0,-0.6438827 0.1663715,-7.078e-4 0.332518,2.36e-4 0.4988896,-4.718e-4 6.754e-4,-0.3307891 -2.251e-4,-0.6613422 4.503e-4,-0.9921313 z" />
</svg>
