<?xml version="1.0" encoding="UTF-8" standalone="no"?>
<svg
   xmlns:dc="http://purl.org/dc/elements/1.1/"
   xmlns:cc="http://creativecommons.org/ns#"
   xmlns:rdf="http://www.w3.org/1999/02/22-rdf-syntax-ns#"
   xmlns:svg="http://www.w3.org/2000/svg"
   xmlns="http://www.w3.org/2000/svg"
   shape-rendering="auto"
   version="1.1"
   id="svg4205"
   viewBox="0 0 16 16"
   height="16"
   width="16">
  <defs
     id="defs4207" />
  <metadata
     id="metadata4210">
    <rdf:RDF>
      <cc:Work
         rdf:about="">
        <dc:format>image/svg+xml</dc:format>
        <dc:type
           rdf:resource="http://purl.org/dc/dcmitype/StillImage" />
        <dc:title />
      </cc:Work>
    </rdf:RDF>
  </metadata>
  <g
     style="display:inline;opacity:0.97000002"
     transform="translate(0,-1036.3622)"
     id="layer1">
    <path
       id="path4150"
       d="m 1.5,1049.8622 0,-3 c 0,-1 1,-2 2,-2 l 4,0 c 1,0 2,1 2,2 l 0,3 z"
       style="fill:none;fill-rule:evenodd;stroke:#ffffff;stroke-width:1px;stroke-linecap:butt;stroke-linejoin:miter;stroke-opacity:1" />
    <path
       id="path4152"
       d="m 7.5,1041.3622 c 0,1.5 -0.8954305,2.5 -2,2.5 -1.1045695,0 -2,-1 -2,-2.5 0,-2 0.5,-2.5 2,-2.5 1.5,0 2,0.5 2,2.5 z"
       style="fill:none;fill-opacity:1;stroke:#ffffff;stroke-width:1;stroke-linecap:square;stroke-linejoin:round;stroke-miterlimit:4;stroke-dasharray:none;stroke-dashoffset:0;stroke-opacity:1" />
    <path
       id="path4154"
       d="m 9.5,1043.8622 3,0 c 1,0 2,1 2,2 l 0,2 -3.5,0"
       style="fill:none;fill-rule:evenodd;stroke:#ffffff;stroke-width:1px;stroke-linecap:round;stroke-linejoin:miter;stroke-opacity:1" />
    <path
       id="path4156"
       d="m 12.5,1041.3622 c 0,1 -0.5,1.5 -1.25,1.5 -0.75,0 -1.25,-0.5 -1.25,-1.5 0,-1 0.5,-1.5 1.25,-1.5 0.75,0 1.25,0.5 1.25,1.5 z"
       style="fill:none;fill-opacity:1;stroke:#ffffff;stroke-width:1;stroke-linecap:square;stroke-linejoin:round;stroke-miterlimit:4;stroke-dasharray:none;stroke-dashoffset:0;stroke-opacity:1" />
  </g>
</svg>
